<svg width="100" height="100" viewBox="0 0 100 100" fill="none" xmlns="http://www.w3.org/2000/svg">
<rect width="100" height="100" fill="#525373"/>
<path d="M32.568 73V28.2H51.96C55.9707 28.2 59.4267 28.8613 62.328 30.184C65.2293 31.464 67.4693 33.32 69.048 35.752C70.6267 38.184 71.416 41.0853 71.416 44.456C71.416 47.784 70.6267 50.664 69.048 53.096C67.4693 55.528 65.2293 57.4053 62.328 58.728C59.4267 60.008 55.9707 60.648 51.96 60.648H38.328L42.936 55.976V73H32.568ZM42.936 57.128L38.328 52.2H51.384C54.584 52.2 56.9733 51.5173 58.552 50.152C60.1307 48.7867 60.92 46.888 60.92 44.456C60.92 41.9813 60.1307 40.0613 58.552 38.696C56.9733 37.3307 54.584 36.648 51.384 36.648H38.328L42.936 31.72V57.128Z" fill="white"/>
</svg>
